PathFileType	4	(X/Y/Z)	D:\TRACE\spotREDO_2-26-24\spot_Both_Motion_3_5-platform.trc
DataRate	CameraRate	NumFrames	NumMarkers	Units	OrigDataRate	OrigDataStartFrame	OrigNumFrames
100.00	100.00	      48	5	mm	100.00	6126	      7000
Frame#	Time	Left_Front			Right_Front			Left_Aft			Right_Aft			Post			
		X1	Y1	Z1	X2	Y2	Z2	X3	Y3	Z3	X4	Y4	Z4	X5	Y5	Z5	

6126	61.250	-703.18945	19.55451	-569.28931	711.44275	25.12040	-484.34061	-774.57593	-20.24533	648.70673	794.66583	-13.56720	653.90381	-9.08336	660.84473	-951.20404	
6127	61.260	-703.26074	19.61869	-569.26044	711.40588	25.12881	-484.33792	-774.64362	-20.18797	648.75513	794.53693	-13.57382	653.91418	-9.10470	660.85284	-951.17682	
6128	61.270	-703.26978	19.55827	-569.26318	711.36682	25.09383	-484.35089	-774.70886	-20.19425	648.79059	794.48309	-13.57906	653.95325	-9.09036	660.82855	-951.13727	
6129	61.280	-703.36322	19.54246	-569.23608	711.31403	25.07952	-484.32074	-774.74780	-20.16204	648.78601	794.48004	-13.58130	653.88947	-9.19908	660.86353	-951.14667	
6130	61.290	-703.46741	19.59475	-569.24921	711.23340	25.06281	-484.30991	-774.86041	-20.28948	648.80780	794.33398	-13.63879	653.97461	-9.24082	660.90741	-951.12854	
6131	61.300	-703.44720	19.57365	-569.32642	711.08270	25.05409	-484.31610	-774.97406	-20.31146	648.77380	794.15588	-13.59939	653.96240	-9.34666	660.88361	-951.12701	
6132	61.310	-703.70020	19.69619	-569.28009	710.92181	25.39321	-484.35233	-775.10107	-20.27912	648.78186	794.04285	-13.60944	653.96960	-9.40672	660.89349	-951.07074	
6133	61.320	-703.72058	19.75784	-569.26770	710.80267	25.38262	-484.42731	-775.20776	-20.34793	648.74969	793.94989	-13.56490	653.97638	-9.52355	660.92700	-951.03021	
6134	61.330	-703.83044	19.82216	-569.23572	710.79382	25.41658	-484.37509	-775.31451	-20.33765	648.78412	793.87561	-13.58294	653.97412	-9.59280	660.94257	-950.98779	
6135	61.340	-703.83636	19.84128	-569.23712	710.73926	25.53777	-484.35538	-775.46301	-20.31188	648.78442	793.86115	-13.57225	653.98309	-9.69655	660.97528	-950.95032	
6136	61.350	-703.93292	19.93764	-569.24023	710.65985	25.54106	-484.40158	-775.56555	-20.35093	648.79449	793.79700	-13.58945	653.98828	-9.75994	661.00476	-950.90887	
6137	61.360	-704.10376	19.92431	-569.21045	710.57538	25.56950	-484.47910	-775.53870	-20.25478	648.95953	793.69037	-13.62191	653.99438	-9.89643	661.06799	-950.86749	
6138	61.370	-704.20203	19.97600	-569.22491	710.51038	25.53872	-484.48849	-775.73492	-20.44928	648.82129	793.61877	-13.65042	653.97748	-10.02501	661.11530	-950.81512	
6139	61.380	-704.37683	20.06119	-569.14587	710.48438	25.61794	-484.44400	-775.77240	-20.30653	648.95123	793.51056	-13.68407	653.95319	-10.12098	661.14716	-950.75677	
6140	61.390	-704.48425	20.11643	-569.15112	710.45959	25.63894	-484.32379	-775.84790	-20.38630	648.90704	793.41925	-13.71097	653.97363	-10.23601	661.21167	-950.76581	
6141	61.400	-704.60522	20.15269	-569.07648	710.45697	25.68269	-484.34354	-775.95776	-20.58745	648.87561	793.36493	-13.76820	653.96002	-10.32663	661.26862	-950.73083	
6142	61.410	-704.67291	20.14511	-569.06232	710.33392	25.64111	-484.36865	-776.07819	-20.66471	648.89832	793.24329	-13.83689	653.95282	-10.37247	661.28949	-950.71118	
6143	61.420	-704.74329	20.16064	-569.04596	710.33319	25.73352	-484.32666	-776.11273	-20.69912	648.90100	793.18066	-13.84487	653.94714	-10.51143	661.36041	-950.67365	
6144	61.430	-704.81573	20.17871	-569.06165	710.24365	25.74140	-484.29346	-776.20447	-20.72896	648.95660	793.17712	-13.87051	653.93542	-10.67394	661.47443	-950.59985	
6145	61.440	-704.95105	20.21871	-569.03516	710.04303	25.79845	-484.27814	-776.29205	-20.73818	648.97766	793.07043	-13.90336	653.92822	-10.72731	661.53699	-950.54102	
6146	61.450	-704.99146	20.22961	-569.01807	709.95099	25.88321	-484.17621	-776.45032	-20.79620	648.95129	793.06964	-13.94030	653.94196	-10.78252	661.59668	-950.49426	
6147	61.460	-705.09790	20.27961	-569.01270	709.69769	25.81014	-484.24158	-776.54584	-20.84408	648.94257	792.97498	-14.00578	653.91058	-10.85325	661.65265	-950.44116	
6148	61.470	-705.23773	20.25884	-569.00568	709.57874	25.87813	-484.27945	-776.59454	-20.87170	648.93793	792.87500	-14.07348	653.94000	-10.98204	661.76056	-950.35553	
6149	61.480	-705.27576	20.27303	-568.99652	709.50531	25.85936	-484.20319	-776.64484	-20.89653	648.91418	792.75616	-14.12486	653.96906	-11.13542	661.82904	-950.27179	
6150	61.490	-705.33820	20.24942	-569.00726	709.33661	25.82943	-484.20642	-776.73071	-20.95752	648.90991	792.66541	-14.09632	653.85345	-11.13961	661.81073	-950.21930	
6151	61.500	-705.46887	20.24594	-569.01495	709.20367	25.88120	-484.22311	-776.76666	-20.93281	648.91620	792.62360	-14.09648	653.97290	-11.24877	661.84039	-950.18848	
6152	61.510	-705.57281	20.20975	-569.01001	708.59583	25.41383	-484.83984	-776.83856	-20.96627	648.92480	792.52026	-14.06256	653.88721	-11.28827	661.77069	-950.20404	
6153	61.520	-705.69586	20.18015	-569.05157	708.59491	25.32033	-484.62512	-776.91797	-20.96379	648.87134	792.33350	-14.06111	653.88086	-11.31912	661.70068	-950.25897	
6154	61.530	-705.73492	20.12237	-569.07507	708.72717	25.46268	-484.51917	-776.99341	-20.93367	648.85785	792.23285	-13.98334	653.92578	-11.32122	661.60577	-950.31464	
6155	61.540	-705.78833	20.09295	-569.09906	708.64380	25.41799	-484.53156	-777.02600	-20.89351	648.84894	792.10767	-13.89917	653.90692	-11.36489	661.61273	-950.36902	
6156	61.550	-705.87268	20.06581	-569.12531	708.67279	25.46120	-484.48685	-777.14410	-20.91263	648.87567	792.04071	-13.86903	653.91302	-11.59026	661.54718	-950.53033	
6157	61.560	-705.97076	20.06927	-569.06396	708.53857	25.45657	-484.45877	-777.17590	-20.94182	648.86743	791.99292	-13.87582	653.90314	-11.79615	661.53387	-950.67535	
6158	61.570	-706.03101	19.95984	-569.10297	708.48145	25.37400	-484.47156	-777.25989	-20.93234	648.90063	791.91797	-13.84821	653.91046	-11.87984	661.52374	-950.71887	
6159	61.580	-706.09058	19.93213	-569.10309	708.58447	25.34982	-484.48163	-777.34369	-20.89196	648.92395	791.79828	-13.86798	653.89911	-11.95812	661.48145	-950.76666	
6160	61.590	-706.12866	19.89298	-569.17596	708.44611	25.33482	-484.48401	-777.44629	-20.76512	648.90900	791.78064	-13.79609	653.89758	-12.05393	661.37604	-950.77429	
6161	61.600	-706.15424	19.83316	-569.14886	708.51910	25.29753	-484.49979	-777.56641	-20.71629	648.90240	791.59546	-13.72310	653.88245	-12.10884	661.30804	-950.70337	
6162	61.610	-706.17010	19.73090	-569.15485	708.38416	25.30344	-484.48935	-777.64771	-20.57083	648.89777	791.59497	-13.62986	653.89972	-12.23973	661.20062	-950.65161	
6163	61.620	-706.20081	19.65280	-569.12683	708.33533	25.18606	-484.52707	-777.80664	-20.39683	648.77850	791.52509	-13.57722	653.87213	-12.28736	661.11951	-950.66095	
6164	61.630	-706.19141	19.56455	-569.13043	708.32568	25.17071	-484.46405	-777.98993	-20.26401	648.76538	791.47504	-13.48164	653.85968	-12.13029	660.93573	-950.56104	
6165	61.640	-706.14301	19.55263	-569.14191	708.29578	25.07755	-484.51794	-777.77399	-20.40825	648.63031	791.74548	-13.17045	653.99847	-12.35321	660.73621	-950.76605	
6166	61.650	-706.33075	19.45912	-569.17261	708.29846	25.03199	-484.52182	-777.80487	-20.28860	648.56549	791.52588	-13.14222	653.85718	-12.33530	660.62793	-950.86023	
6167	61.660	-706.32397	19.34773	-569.14691	708.14618	25.04829	-484.64017	-777.92419	-20.08396	648.61353	791.52698	-12.94517	653.90179	-12.43299	660.51465	-951.16327	
6168	61.670	-706.43286	19.28919	-569.20880	708.08063	24.94743	-484.69708	-777.93634	-19.86383	648.65137	791.32104	-13.02843	653.79401	-12.50474	660.38556	-951.40753	
6169	61.680	-706.36340	19.06676	-569.37482	708.07635	24.99921	-484.69232	-777.97223	-19.83324	648.54663	791.21234	-12.85511	653.79126	-12.59254	660.16956	-951.61249	
6170	61.690	-706.49017	18.97507	-569.41467	708.21094	24.59330	-484.53851	-778.00531	-19.85134	648.55487	791.12396	-12.75752	653.75806	-12.60502	659.85181	-952.05115	
6171	61.700	-706.55988	18.87445	-569.50140	708.10449	24.48596	-484.67032	-778.16174	-19.49055	648.47076	791.08997	-12.68290	653.73114	-12.61744	659.67419	-952.30170	
6172	61.710	-706.66089	18.68892	-569.60156	707.94861	24.52537	-484.80048	-778.27258	-19.31614	648.48010	791.08960	-12.46173	653.67999	-12.56301	659.45001	-952.41455	
6173	61.720	-706.76788	18.51094	-569.58502	708.02441	24.10393	-484.75903	-778.27423	-19.29013	648.43134	791.08234	-12.31685	653.67035	-12.48234	659.13190	-952.46222	
